<svg width="19" height="20" viewBox="0 0 19 20" fill="none" xmlns="http://www.w3.org/2000/svg">
<path d="M11.5352 17.9829V13.3488C11.5352 13.1439 11.4562 12.9475 11.3155 12.8026C11.1749 12.6578 10.9841 12.5764 10.7852 12.5764H7.78522C7.5863 12.5764 7.39554 12.6578 7.25489 12.8026C7.11424 12.9475 7.03522 13.1439 7.03522 13.3488V17.9829C7.03522 18.1877 6.95621 18.3841 6.81558 18.529C6.67495 18.6738 6.48421 18.7552 6.28531 18.7552L1.78586 18.7558C1.68736 18.7558 1.58982 18.7359 1.49882 18.6971C1.40781 18.6583 1.32512 18.6014 1.25547 18.5296C1.18582 18.4579 1.13056 18.3728 1.09287 18.2791C1.05517 18.1854 1.03577 18.0849 1.03577 17.9835V9.05716C1.03577 8.94956 1.0576 8.84314 1.09987 8.74474C1.14214 8.64633 1.2039 8.55811 1.28121 8.48572L8.7807 1.46375C8.91875 1.33448 9.09864 1.26285 9.28523 1.26285C9.47181 1.26284 9.65171 1.33446 9.78977 1.46371L17.2903 8.48572C17.3676 8.55811 17.4294 8.64633 17.4717 8.74475C17.5139 8.84316 17.5358 8.94958 17.5358 9.05719V17.9835C17.5358 18.0849 17.5164 18.1854 17.4787 18.2791C17.441 18.3728 17.3857 18.4579 17.3161 18.5297C17.2464 18.6014 17.1637 18.6583 17.0727 18.6971C16.9817 18.7359 16.8842 18.7558 16.7857 18.7558L12.2851 18.7552C12.0862 18.7552 11.8955 18.6738 11.7549 18.529C11.6142 18.3841 11.5352 18.1877 11.5352 17.9829V17.9829Z" stroke="black" stroke-width="1.5" stroke-linecap="round" stroke-linejoin="round"/>
</svg>
