<svg width="25" height="24" viewBox="0 0 25 24" fill="none" xmlns="http://www.w3.org/2000/svg">
<path fill-rule="evenodd" clip-rule="evenodd" d="M2.5293 7.98269C2.5293 4.81302 5.09882 2.2435 8.26849 2.2435H16.2512C19.4209 2.2435 21.9904 4.81302 21.9904 7.98269V15.9654C21.9904 19.1351 19.4209 21.7046 16.2512 21.7046H8.26849C5.09882 21.7046 2.5293 19.1351 2.5293 15.9654V7.98269ZM4.09543 7.2327H9.48845L7.61287 3.85665L7.76282 3.77335C5.90795 3.99382 4.42048 5.41195 4.09543 7.2327ZM14.4776 7.2327H11.2044L9.26594 3.7435H12.8057L12.6021 3.85665L14.4776 7.2327ZM16.1936 7.2327H20.4242C20.0701 5.24919 18.3365 3.7435 16.2512 3.7435H14.2551L16.1936 7.2327ZM20.4904 8.7327H4.0293V15.9654C4.0293 18.3066 5.92725 20.2046 8.26849 20.2046H16.2512C18.5924 20.2046 20.4904 18.3066 20.4904 15.9654V8.7327ZM14.842 14.0639C15.0358 13.9476 15.0358 13.6667 14.842 13.5505L10.734 11.0857C10.5345 10.966 10.2807 11.1097 10.2807 11.3424V16.272C10.2807 16.5047 10.5345 16.6484 10.734 16.5287L14.842 14.0639Z" fill="black"/>
</svg>
